<svg width="200" height="200" viewBox="0 0 200 200" fill="none" xmlns="http://www.w3.org/2000/svg">
<path d="M100 200C51.8966 200 0 168.694 0 100C0 31.3059 51.8966 0 100 0C126.724 0 151.379 9.12343 169.655 25.7603C189.483 44.0072 200 69.7674 200 100C200 130.233 189.483 155.814 169.655 174.061C151.379 190.698 126.552 200 100 200Z" fill="url(#paint0_radial_237_16)"/>
<path d="M182.569 40.5546C191.759 55.9392 196.552 74.2576 196.552 94.6333C196.552 124.866 186.035 150.447 166.207 168.694C147.931 185.331 123.103 194.633 96.5517 194.633C65.4138 194.633 32.7586 181.485 13.4828 153.596C32.0345 185.188 66.9311 200 100 200C126.552 200 151.379 190.698 169.655 174.061C189.483 155.814 200 130.233 200 100C200 77.2093 194.017 56.9589 182.569 40.5546Z" fill="#EB8F00"/>
<path d="M101.379 136.494C95.2069 136.494 89.0862 135.42 83.2759 133.274C76.1207 130.716 68.3448 134.669 65.8793 142.075C64.4828 146.261 65.0517 150.877 67.4138 154.562C74.8276 166.368 86.5517 172.809 101.379 172.809C116.207 172.809 127.931 166.368 135.345 154.562C139.535 148.032 137.81 139.213 131.517 134.866C127.966 132.415 123.517 131.825 119.483 133.274C113.672 135.42 107.552 136.494 101.379 136.494Z" fill="#422B0D"/>
<path opacity="0.8" d="M49.3101 147.048C65.9739 147.048 79.4825 133.833 79.4825 117.531C79.4825 101.229 65.9739 88.0142 49.3101 88.0142C32.6463 88.0142 19.1377 101.229 19.1377 117.531C19.1377 133.833 32.6463 147.048 49.3101 147.048Z" fill="url(#paint1_radial_237_16)"/>
<path opacity="0.8" d="M153.449 147.048C170.112 147.048 183.621 133.833 183.621 117.531C183.621 101.229 170.112 88.0142 153.449 88.0142C136.785 88.0142 123.276 101.229 123.276 117.531C123.276 133.833 136.785 147.048 153.449 147.048Z" fill="url(#paint2_radial_237_16)"/>
<path d="M175.845 48.9623C161.69 44.83 151.293 56.8335 151.293 56.8335C151.293 56.8335 150.086 43.22 137.983 38.9445C123.466 33.7745 108.138 42.0035 107.224 63.3452C106.19 87.6564 137.19 119.571 137.19 119.571C137.19 119.571 175.673 108.837 188.276 86.0822C198.535 67.567 186.552 52.075 175.845 48.9623Z" fill="#F44336"/>
<path d="M175.845 48.9622C174.103 48.4792 172.31 48.2646 170.517 48.3003C175.586 51.8245 179.603 56.744 182.103 62.5043C184.534 68.5687 185.172 76.4041 180.552 85.7601C170.534 106.1 139.69 118.694 137.448 119.57C140.259 118.748 176.224 108.014 188.345 86.1358C198.534 67.5669 186.552 52.0749 175.845 48.9622Z" fill="#C62828"/>
<path d="M151.276 59.0339C151.173 57.1734 150.897 55.313 150.483 53.4883C149.483 48.2289 146.345 43.6672 141.862 40.9659C138.793 39.1054 135.397 37.9248 131.88 37.4775C131.88 37.4775 137.052 39.1054 140.742 46.5294C142.621 50.4292 143.742 54.6868 144.017 59.0339C144 60.626 144.276 62.1824 144.828 63.6672C145.448 65.152 146.966 66.0285 148.517 65.7781C150.88 65.152 151.397 62.0929 151.276 59.0339Z" fill="#C62828"/>
<path d="M117.759 50.501C120.983 46.3508 126.276 42.3973 131.345 46.0467C134.035 47.9966 134.069 53.5243 130.776 56.0109C125.224 60.2327 124.966 63.0055 124.345 65.3311C123.586 68.1039 123.104 71.4134 120.672 72.8087C118.241 74.2041 116.104 72.8087 114.828 68.8195C112.655 62.5941 113.759 55.6531 117.759 50.501Z" fill="#FF847A"/>
<path d="M60.5515 38.587C46.5687 43.2919 44.3274 59.2668 44.3274 59.2668C44.3274 59.2668 36.0515 48.5334 23.6377 52.0038C8.82736 56.0468 0.465294 71.7176 11.0343 89.9824C23.2756 110.913 66.1032 119.589 66.1032 119.589C66.1032 119.589 92.3963 88.5334 90.7412 62.3437C89.3791 41.0199 71.1205 35.0271 60.5515 38.587Z" fill="#F44336"/>
<path d="M60.5521 38.5866C58.8452 39.1591 57.2073 39.982 55.7073 41.0196C61.8107 41.0374 67.7762 42.8264 72.9487 46.1895C78.2245 49.7673 82.9314 55.9927 84.1038 66.4578C86.6383 89.1591 67.6728 117.37 66.2073 119.427C68.1211 117.138 92.3107 87.5133 90.7245 62.3255C89.3797 41.0196 71.1211 35.0267 60.5521 38.5866Z" fill="#C62828"/>
<path d="M45.5172 61.1448C44.4483 59.6242 43.2414 58.2288 41.8965 56.9766C38.2759 53.1483 33.2586 51.109 28.1034 51.3952C24.569 51.6099 21.1034 52.558 17.931 54.2217C17.931 54.2217 23.1034 52.5938 30.1379 56.6725C33.8103 58.8728 37 61.8245 39.5517 65.3308C40.3793 66.6725 41.4483 67.8174 42.7069 68.7297C44.0172 69.6063 45.7414 69.4453 46.8965 68.3541C48.431 66.422 47.2414 63.5956 45.5172 61.1448Z" fill="#C62828"/>
<path d="M13.1035 73.345C13.1724 71.8423 13.4311 70.3575 13.8621 68.9264C14.569 65.921 16.6207 63.4344 19.3621 62.2359C22 61.3772 25.6552 61.9854 27.069 64.7224C28.3276 67.1554 27.4138 70.0892 26.7242 72.7725C26.1035 75.8495 25.7587 78.9979 25.6897 82.1464C25.7069 84.7224 23.7242 86.8155 21.2414 86.8512C18.8966 86.8512 17.069 84.7403 15.7587 82.7189C13.9311 79.964 13 76.6902 13.1035 73.345Z" fill="#FF847A"/>
<defs>
<radialGradient id="paint0_radial_237_16" cx="0" cy="0" r="1" gradientUnits="userSpaceOnUse" gradientTransform="translate(100 100) scale(98.2064 101.896)">
<stop offset="0.5" stop-color="#FDE030"/>
<stop offset="0.92" stop-color="#F7C02B"/>
<stop offset="1" stop-color="#F4A223"/>
</radialGradient>
<radialGradient id="paint1_radial_237_16" cx="0" cy="0" r="1" gradientUnits="userSpaceOnUse" gradientTransform="translate(49.3101 103.954) scale(32.8826 30.6364)">
<stop stop-color="#ED7770"/>
<stop offset="0.9" stop-color="#ED7770" stop-opacity="0"/>
</radialGradient>
<radialGradient id="paint2_radial_237_16" cx="0" cy="0" r="1" gradientUnits="userSpaceOnUse" gradientTransform="translate(202.621 4509.1) scale(33.5517 34.8122)">
<stop stop-color="#ED7770"/>
<stop offset="0.9" stop-color="#ED7770" stop-opacity="0"/>
</radialGradient>
</defs>
</svg>
