<svg width="200" height="200" viewBox="0 0 200 200" fill="none" xmlns="http://www.w3.org/2000/svg">
<path d="M99.6735 200C51.7271 200 0 168.694 0 100C0 31.3059 51.7271 0 99.6735 0C126.31 0 150.885 9.12343 169.101 25.7603C188.864 44.0072 199.347 69.7674 199.347 100C199.347 130.233 188.864 155.814 169.101 174.061C150.851 190.698 126.139 200 99.6735 200Z" fill="url(#paint0_radial_237_55)"/>
<path d="M66.6438 60.7156C59.4433 60.7156 52.8958 67.0483 52.8958 77.5671C52.8958 88.0859 59.4433 94.4007 66.6438 94.4007C73.8616 94.4007 80.3919 88.068 80.3919 77.5671C80.3919 67.0662 73.9303 60.7156 66.6438 60.7156Z" fill="#422B0D"/>
<path d="M66.0423 67.7461C63.602 66.5296 60.6634 67.603 59.4776 70.1432C58.5668 72.1289 58.9792 74.5082 60.5087 76.0466C62.949 77.2631 65.8876 76.1897 67.0734 73.6495C67.9842 71.6638 67.5718 69.2845 66.0423 67.7461Z" fill="#896024"/>
<path d="M132.635 60.7156C125.434 60.7156 118.886 67.0483 118.886 77.5671C118.886 88.0859 125.434 94.4007 132.635 94.4007C139.835 94.4007 146.383 88.068 146.383 77.5671C146.383 67.0662 139.835 60.7156 132.635 60.7156Z" fill="#422B0D"/>
<path d="M131.947 67.7461C129.507 66.5296 126.568 67.603 125.382 70.1432C124.472 72.1289 124.884 74.5082 126.413 76.0466C128.854 77.2631 131.792 76.1897 132.978 73.6495C133.889 71.6638 133.477 69.2845 131.947 67.7461Z" fill="#896024"/>
<path d="M182.626 40.5544C191.785 55.9391 196.563 74.2575 196.563 94.6332C196.563 124.866 186.08 150.447 166.317 168.694C148.101 185.331 123.354 194.633 96.8894 194.633C65.8532 194.633 33.3046 181.485 14.0917 153.596C32.5828 185.188 67.3654 200 100.326 200C126.791 200 151.538 190.698 169.754 174.061C189.517 155.814 200 130.232 200 99.9999C200 77.2092 194.037 56.9587 182.626 40.5544Z" fill="#EB8F00"/>
<path d="M166.438 115.599C164.032 111.073 158.807 109.088 154.167 110.912C136.536 116.261 118.251 118.927 99.8797 118.837C81.5089 118.927 63.2239 116.261 45.5921 110.912C40.9693 109.088 35.745 111.055 33.3391 115.564C31.0019 120.054 32.6861 125.259 34.6623 129.75C45.6952 154.973 70.012 170.072 99.7422 170.161H100.017C129.747 170.161 154.064 154.973 165.114 129.75C167.073 125.224 168.775 120.089 166.438 115.599Z" fill="#422B0D"/>
<path d="M127.393 163.041C126.757 162.433 126.104 161.878 125.451 161.252C118.439 154.83 109.366 151.377 100.017 151.574C90.3934 151.413 81.0276 154.741 73.5177 161.002C72.8647 161.556 72.1772 162.093 71.5414 162.791C70.9056 163.488 70.5619 163.989 70.1494 164.58C79.6012 168.426 89.6717 170.394 99.8281 170.34H100.103C109.83 170.34 119.471 168.533 128.579 164.973C128.235 164.293 127.84 163.649 127.393 163.041Z" fill="#ED7770"/>
<path d="M154.167 110.912C136.535 116.261 118.25 118.927 99.8795 118.837C81.5086 118.927 63.2237 116.261 45.5918 110.912C40.969 109.088 35.7448 111.055 33.3389 115.563C32.9952 116.243 32.7202 116.959 32.5483 117.692C33.1154 117.996 33.7685 118.3 34.5418 118.622C55.2326 129.41 78.106 134.884 101.237 134.597C123.423 134.866 145.351 129.839 165.389 119.928C166.197 119.571 166.867 119.231 167.468 118.909C167.331 117.746 166.97 116.601 166.437 115.563C164.031 111.055 158.807 109.07 154.167 110.912Z" fill="white"/>
<path d="M166.506 115.617C164.066 111.091 158.825 109.088 154.15 110.912C136.518 116.261 118.233 118.927 99.8797 118.837C81.5089 118.927 63.224 116.261 45.5921 110.912C40.9693 109.088 35.745 111.055 33.3391 115.564C31.0019 120.054 32.6861 125.259 34.6623 129.75C35.5388 131.771 36.5183 133.757 37.601 135.671C37.601 135.671 33.9921 121.753 37.1198 117.71C38.1853 115.993 39.9725 114.92 41.9316 114.812C42.7393 114.812 43.5298 114.955 44.3032 115.206C62.2444 120.698 80.8558 123.47 99.5704 123.435H100.172C118.886 123.47 137.498 120.698 155.439 115.206C156.212 114.955 157.003 114.812 157.811 114.812C159.77 114.92 161.574 115.993 162.64 117.71C165.819 121.753 162.158 135.725 162.158 135.725C163.224 133.81 164.289 131.843 165.183 129.803C167.142 125.313 168.843 120.125 166.506 115.617Z" fill="#EB8F00"/>
<defs>
<radialGradient id="paint0_radial_237_55" cx="0" cy="0" r="1" gradientUnits="userSpaceOnUse" gradientTransform="translate(99.6735 100) scale(97.8857 101.896)">
<stop offset="0.5" stop-color="#FDE030"/>
<stop offset="0.92" stop-color="#F7C02B"/>
<stop offset="1" stop-color="#F4A223"/>
</radialGradient>
</defs>
</svg>
