<svg width="206" height="198" viewBox="0 0 206 198" fill="none" xmlns="http://www.w3.org/2000/svg">
<path d="M102.718 197.998C53.3072 197.998 0 167.006 0 98.999C0 30.9925 53.3072 0 102.718 0C130.169 0 155.494 9.03211 174.267 25.5024C194.633 43.5667 205.436 69.0691 205.436 98.999C205.436 128.929 194.633 154.254 174.267 172.319C155.494 188.789 129.992 197.998 102.718 197.998Z" fill="url(#paint0_radial_237_64)"/>
<path d="M187.531 40.1486C196.971 55.3792 201.894 73.5142 201.894 93.686C201.894 123.616 191.091 148.941 170.725 167.005C151.952 183.476 126.449 192.685 99.176 192.685C67.1917 192.685 33.6489 179.668 13.8491 152.058C32.9051 183.334 68.7502 197.998 102.718 197.998C129.991 197.998 155.494 188.789 174.267 172.318C194.633 154.254 205.436 128.929 205.436 98.999C205.436 76.4364 199.291 56.3887 187.531 40.1486Z" fill="#EB8F00"/>
<path d="M68.0065 60.1078C60.586 60.1078 53.8385 66.3771 53.8385 76.7906C53.8385 87.2041 60.586 93.4558 68.0065 93.4558C75.4447 93.4558 82.1745 87.1864 82.1745 76.7906C82.1745 66.3949 75.5156 60.1078 68.0065 60.1078Z" fill="#422B0D"/>
<path d="M67.3866 67.068C64.8718 65.8637 61.8434 66.9263 60.6214 69.4411C59.6828 71.4069 60.1078 73.7624 61.684 75.2854C64.1988 76.4897 67.2272 75.4271 68.4492 72.9123C69.3879 70.9465 68.9628 68.591 67.3866 67.068Z" fill="#896024"/>
<path d="M136.013 60.1078C128.593 60.1078 121.845 66.3771 121.845 76.7906C121.845 87.2041 128.593 93.4558 136.013 93.4558C143.434 93.4558 150.181 87.1864 150.181 76.7906C150.181 66.3949 143.434 60.1078 136.013 60.1078Z" fill="#422B0D"/>
<path d="M135.305 67.068C132.79 65.8637 129.761 66.9263 128.539 69.4411C127.601 71.4069 128.026 73.7624 129.602 75.2854C132.117 76.4897 135.145 75.4271 136.367 72.9123C137.306 70.9465 136.881 68.591 135.305 67.068Z" fill="#896024"/>
<path d="M60.9224 150.429C73.4434 141.078 88.0187 134.844 103.426 132.241C118.746 129.354 134.525 130.169 149.472 134.596C151.97 135.358 153.918 132.382 151.881 130.895C138.545 121.19 120.198 116.727 101.142 120.162C82.0858 123.598 66.4656 134.065 57.3804 147.808C55.9459 149.898 58.7972 152.023 60.9224 150.429Z" fill="#422B0D"/>
<defs>
<radialGradient id="paint0_radial_237_64" cx="0" cy="0" r="1" gradientUnits="userSpaceOnUse" gradientTransform="translate(102.718 98.999) scale(100.876 100.876)">
<stop offset="0.5" stop-color="#FDE030"/>
<stop offset="0.92" stop-color="#F7C02B"/>
<stop offset="1" stop-color="#F4A223"/>
</radialGradient>
</defs>
</svg>
