<svg width="200" height="200" viewBox="0 0 200 200" fill="none" xmlns="http://www.w3.org/2000/svg">
<path d="M100 200C51.8966 200 0 168.694 0 100C0 31.3059 51.8966 0 100 0C126.724 0 151.379 9.12343 169.655 25.7603C189.483 44.0072 200 69.7674 200 100C200 130.233 189.483 155.814 169.655 174.061C151.379 190.698 126.552 200 100 200Z" fill="url(#paint0_radial_237_33)"/>
<path d="M182.569 40.5546C191.759 55.9392 196.552 74.2576 196.552 94.6333C196.552 124.866 186.034 150.447 166.207 168.694C147.931 185.331 123.103 194.633 96.5516 194.633C65.4137 194.633 32.6896 181.485 13.4827 153.596C32.0344 185.188 66.9137 200 99.9999 200C126.552 200 151.379 190.698 169.655 174.061C189.483 155.814 200 130.233 200 100C200 77.2093 194.017 56.9589 182.569 40.5546Z" fill="#EB8F00"/>
<path opacity="0.8" d="M37.3277 143.703C53.9915 143.703 67.5001 129.687 67.5001 112.397C67.5001 95.1073 53.9915 81.0912 37.3277 81.0912C20.6639 81.0912 7.15527 95.1073 7.15527 112.397C7.15527 129.687 20.6639 143.703 37.3277 143.703Z" fill="url(#paint1_radial_237_33)"/>
<path opacity="0.8" d="M164.052 143.703C180.716 143.703 194.224 129.687 194.224 112.397C194.224 95.1073 180.716 81.0912 164.052 81.0912C147.388 81.0912 133.879 95.1073 133.879 112.397C133.879 129.687 147.388 143.703 164.052 143.703Z" fill="url(#paint2_radial_237_33)"/>
<path d="M71.6896 51.1807C75.6724 51.2343 76.8275 45.5814 72.6034 44.6512C69.4482 43.9893 65.9827 43.8998 62.5517 44.3471C52.9482 45.4383 44.6724 50.5724 39.2758 57.263C36.5862 60.6977 40.9827 64.3113 43.9138 61.7531C51.4138 55.4383 61.3103 51.2701 71.6896 51.1807Z" fill="#422B0D"/>
<path d="M128.345 52.3972C124.396 52.8624 122.707 47.3525 126.81 45.9929C129.896 45.0269 133.328 44.5797 136.776 44.6692C146.431 44.7765 155.155 49.0341 161.172 55.1522C164.172 58.3006 160.138 62.3436 156.983 60.0895C148.914 54.5618 138.672 51.4312 128.345 52.3972Z" fill="#422B0D"/>
<path d="M100.69 159.571C119.31 159.571 131.379 145.438 134.655 138.819C135.862 136.315 135.862 134.168 134.828 133.274C133.965 132.558 132.759 132.558 131.207 133.274C130.69 133.453 130.172 133.811 129.655 134.168C121.379 140.251 111.207 144.007 100.69 144.007C90.1724 144.007 80 140.251 71.7241 134.347C71.2069 133.989 70.6896 133.632 70.1724 133.453C68.6207 132.737 67.4138 132.737 66.5517 133.453C65.5172 134.526 65.5172 136.494 66.7241 138.998C70 145.438 82.0689 159.571 100.69 159.571Z" fill="#422B0D"/>
<path d="M79.3104 97.3704L78.9655 97.0126C78.7931 96.8337 78.2759 96.297 78.1035 96.1181C77.7587 95.7604 77.4138 95.5815 76.8966 95.0448C76.3793 94.687 75.8621 94.1503 75.1724 93.7926C74.4828 93.4348 73.7931 92.8981 73.1035 92.5403C72.4138 92.1825 71.5518 91.8248 70.6897 91.467C69.8276 91.1092 68.9655 90.9303 68.1035 90.7514C67.2414 90.5725 66.3793 90.5725 65.3449 90.5725H65H64.4828C63.9655 90.5725 63.9655 90.5725 63.7931 90.5725C63.4483 90.5725 62.9311 90.7514 62.5862 90.7514C61.7242 90.9303 60.8621 91.1092 60 91.467C59.138 91.8248 58.2759 92.0036 57.5862 92.5403C56.8966 92.8981 56.2069 93.2559 55.5173 93.7926C54.3104 94.687 53.2759 95.5815 52.5862 96.1181C51.8966 96.8337 51.5518 97.1915 51.5518 97.1915L51.2069 97.5493C49.138 99.696 45.6897 99.696 43.2759 97.907C41.5518 96.4759 41.0345 93.9714 41.8966 92.1825L42.069 91.6459C42.2414 91.2881 42.4138 90.7514 42.7586 90.2147C43.4483 88.9625 44.6552 87.1736 46.5517 85.2058C47.4138 84.3113 48.6207 83.238 49.8276 82.3435C51.0345 81.4491 52.5862 80.5546 54.138 79.8391C55.6897 79.1235 57.5862 78.4079 59.3104 78.0502C60.1724 77.8713 61.2069 77.6924 62.2414 77.5135C62.7586 77.5135 63.4483 77.3346 63.6207 77.3346H65C66.8966 77.3346 68.7931 77.5135 70.6897 77.8713C72.5862 78.229 74.3104 78.9446 75.8621 79.6602C77.4138 80.3757 78.9655 81.2702 80.1724 82.1646C81.5518 83.0591 82.5862 83.9536 83.4483 85.0269C84.3104 85.9214 85.1724 86.8158 85.6897 87.7103C86.0345 88.068 86.2069 88.6047 86.5518 88.9625C86.7242 89.3203 87.069 89.6781 87.2414 90.0359C87.7587 90.7514 87.7586 91.1092 87.9311 91.467C88.1035 91.8248 88.1035 91.8248 88.1035 91.8248C89.3104 94.5081 87.9311 97.5493 85 98.6226C83.4483 99.5171 80.8621 98.9804 79.3104 97.3704Z" fill="#422B0D"/>
<path d="M149.845 96.7264C149.845 96.7264 149.724 96.6012 149.5 96.3686C149.31 96.1718 148.879 95.6709 148.621 95.4742C148.293 95.1879 147.896 94.848 147.431 94.4545C146.931 94.0609 146.362 93.6316 145.741 93.1844C145.103 92.7729 144.414 92.3436 143.672 91.9679C142.948 91.5564 142.121 91.2702 141.293 90.9482C140.465 90.6441 139.586 90.4831 138.707 90.2863C137.827 90.1432 136.914 90.0716 136 90.0716H136.241H136.224H136.19H136.121H135.983H135.707L135.172 90.0895C134.724 90.0895 134.655 90.1253 134.483 90.1432C134.207 90.1432 133.707 90.2327 133.276 90.3042C132.396 90.501 131.517 90.662 130.69 90.9661C129.879 91.2881 129.052 91.5743 128.327 91.9858C127.586 92.3793 126.896 92.7908 126.259 93.2022C125.017 94.0609 124 94.9196 123.327 95.5636C122.638 96.2076 122.241 96.6012 122.241 96.6012L121.81 97.0484C119.724 99.1414 116.207 99.2666 113.931 97.3525C112.138 95.8319 111.69 93.4885 112.586 91.5386C112.586 91.5386 112.672 91.3597 112.845 91.0019C113.017 90.662 113.224 90.1253 113.603 89.4992C114.31 88.2291 115.483 86.4402 117.345 84.5618C118.276 83.6316 119.362 82.6477 120.655 81.7532C121.914 80.823 123.379 79.9822 125 79.2488C126.621 78.5332 128.379 77.9071 130.241 77.5135C131.19 77.3346 132.069 77.1557 133.224 77.0484C133.759 76.9947 134.396 76.9411 134.672 76.9232L136 76.8695C137.948 76.9053 139.879 77.12 141.759 77.4956C143.621 77.8892 145.379 78.5153 147 79.2309C148.603 79.9643 150.086 80.8051 151.345 81.7353C152.638 82.6298 153.707 83.5958 154.638 84.5439C155.569 85.4742 156.31 86.4044 156.931 87.2452C157.224 87.6745 157.5 88.0681 157.759 88.4437C158 88.8552 158.241 89.2309 158.431 89.5708C158.896 90.3221 158.931 90.6083 159.103 90.9482C159.224 91.2344 159.293 91.3954 159.293 91.3954C160.448 94.0609 159.052 97.0842 156.172 98.1575C153.914 98.9983 151.379 98.3543 149.845 96.7264Z" fill="#422B0D"/>
<defs>
<radialGradient id="paint0_radial_237_33" cx="0" cy="0" r="1" gradientUnits="userSpaceOnUse" gradientTransform="translate(100 99.9998) scale(98.2064 101.896)">
<stop offset="0.5" stop-color="#FDE030"/>
<stop offset="0.9188" stop-color="#F7C02B"/>
<stop offset="1" stop-color="#F4A223"/>
</radialGradient>
<radialGradient id="paint1_radial_237_33" cx="0" cy="0" r="1" gradientUnits="userSpaceOnUse" gradientTransform="translate(37.3287 112.395) scale(32.8242 32.3528)">
<stop stop-color="#ED7770"/>
<stop offset="0.9" stop-color="#ED7770" stop-opacity="0"/>
</radialGradient>
<radialGradient id="paint2_radial_237_33" cx="0" cy="0" r="1" gradientUnits="userSpaceOnUse" gradientTransform="translate(164.056 112.395) scale(32.8242 32.3528)">
<stop stop-color="#ED7770"/>
<stop offset="0.9" stop-color="#ED7770" stop-opacity="0"/>
</radialGradient>
</defs>
</svg>
