<svg width="206" height="198" viewBox="0 0 206 198" fill="none" xmlns="http://www.w3.org/2000/svg">
<path d="M102.718 197.998C53.3072 197.998 0 167.006 0 98.999C0 30.9925 53.3072 0 102.718 0C130.169 0 155.494 9.03211 174.267 25.5024C194.633 43.5667 205.436 69.0691 205.436 98.999C205.436 128.929 194.633 154.254 174.267 172.319C155.494 188.789 129.992 197.998 102.718 197.998Z" fill="url(#paint0_radial_237_43)"/>
<path d="M187.531 40.1486C196.971 55.3792 201.894 73.5142 201.894 93.686C201.894 123.616 191.091 148.941 170.725 167.005C151.952 183.476 126.449 192.685 99.176 192.685C67.1917 192.685 33.6489 179.668 13.8491 152.058C32.9051 183.334 68.7502 197.998 102.718 197.998C129.991 197.998 155.494 188.789 174.267 172.318C194.633 154.254 205.436 128.929 205.436 98.999C205.436 76.4364 199.291 56.3887 187.531 40.1486Z" fill="#D84213"/>
<path d="M138.74 170.264C138.138 170.034 137.589 169.662 137.164 169.166C119.932 151.261 91.437 150.712 73.5321 167.944C73.1248 168.351 72.6998 168.759 72.3102 169.166C71.8851 169.662 71.3361 170.034 70.734 170.264C69.4057 170.76 67.9004 170.477 66.8378 169.538C65.7929 168.617 65.4387 167.147 65.97 165.854C71.2476 152.306 86.9386 141.68 104.737 141.68C122.536 141.68 138.227 152.306 143.504 165.837C144.036 167.129 143.682 168.599 142.637 169.52C141.574 170.459 140.069 170.742 138.74 170.264Z" fill="#422B0D"/>
<path d="M93.0485 109.483C89.0815 104.489 72.7351 94.8902 66.8377 92.092C64.6416 91.0826 62.357 90.2679 60.0193 89.6658C59.5943 89.5418 59.1338 89.4886 58.6911 89.4886C56.3356 89.5418 54.3167 91.2242 53.8385 93.5442C53.2895 95.9528 54.5292 98.4322 56.7961 99.424C59.5766 100.788 64.4291 103.373 69.4587 106.225C65.2615 108.722 62.6935 113.256 62.6935 118.143V120.729C62.6935 128.061 68.6441 134.012 75.976 134.012C83.308 134.012 89.2586 128.061 89.2586 120.729V118.143C89.2586 118.037 89.2586 117.949 89.2586 117.842C91.1535 117.718 92.8537 116.585 93.6861 114.885C94.5539 113.114 94.3059 111.006 93.0485 109.483Z" fill="#422B0D"/>
<path d="M155.707 93.5442C155.211 91.2065 153.156 89.5418 150.765 89.524C150.323 89.524 149.862 89.5772 149.437 89.7012C147.099 90.2856 144.815 91.1002 142.619 92.092C136.721 94.8548 120.375 104.489 116.408 109.448C115.151 110.989 114.938 113.114 115.824 114.885C116.674 116.603 118.356 117.718 120.269 117.842V118.143V120.729C120.269 128.061 126.219 134.012 133.551 134.012C140.883 134.012 146.834 128.061 146.834 120.729V118.143C146.834 113.273 144.266 108.757 140.086 106.26C145.116 103.409 149.968 100.823 152.749 99.4594C155.034 98.4676 156.291 95.9705 155.707 93.5442Z" fill="#422B0D"/>
<path d="M75.303 108.828C72.7882 107.624 69.7598 108.686 68.5378 111.201C67.5991 113.167 68.0242 115.522 69.6004 117.046C72.1152 118.25 75.1436 117.187 76.3656 114.672C77.3042 112.707 76.8792 110.351 75.303 108.828Z" fill="#896024"/>
<path d="M132.878 108.828C130.363 107.624 127.335 108.686 126.113 111.201C125.174 113.167 125.599 115.522 127.176 117.046C129.69 118.25 132.719 117.187 133.941 114.672C134.88 112.707 134.454 110.351 132.878 108.828Z" fill="#896024"/>
<defs>
<radialGradient id="paint0_radial_237_43" cx="0" cy="0" r="1" gradientUnits="userSpaceOnUse" gradientTransform="translate(102.718 98.9989) scale(100.876 100.876)">
<stop offset="0.12" stop-color="#FAC742"/>
<stop offset="0.32" stop-color="#FAC440"/>
<stop offset="0.48" stop-color="#FBBA3B"/>
<stop offset="0.62" stop-color="#FBA931"/>
<stop offset="0.76" stop-color="#FC9224"/>
<stop offset="0.88" stop-color="#FE7413"/>
<stop offset="1" stop-color="#FF5100"/>
</radialGradient>
</defs>
</svg>
